<svg width="442" height="266" viewBox="0 0 442 266" fill="none" xmlns="http://www.w3.org/2000/svg">
<path d="M440.521 234.765C410.042 235.663 379.563 236.558 361.817 235.078C344.074 233.595 339.067 229.735 331.749 208.894C324.431 188.053 314.806 150.228 306.475 117.231C298.148 84.2311 291.119 56.056 286.594 41.777C282.068 27.495 280.046 27.109 274.896 27.881C269.746 28.653 261.466 30.583 257.518 32.4165C253.57 34.25 253.955 35.987 253.757 34.9547C253.558 33.9225 252.776 30.118 250.512 28.8167C248.251 27.5125 244.507 28.7115 239.063 30.4368C233.621 32.1621 226.478 34.4167 223.876 34.595C221.273 34.7734 223.21 32.8785 223.126 27.8576C223.041 22.8396 220.935 14.6985 216.281 9.40854C211.624 4.11859 204.42 1.67977 196.813 1.65638C189.206 1.63591 181.2 4.03086 175.779 8.92312C170.358 13.8154 167.524 21.2049 167.338 27.6178C167.151 34.0307 169.611 39.4697 171.662 42.6893C173.713 45.906 175.359 46.9061 172.511 48.3624C169.663 49.8186 162.322 51.734 157.111 53.0265C151.9 54.322 148.818 54.9975 147.085 55.8163C145.352 56.635 144.967 57.6 145.641 61.653C146.315 65.706 148.048 72.847 149.974 77.2831C151.9 81.7221 154.018 83.4591 159.988 82.9766C165.958 82.4941 175.776 79.7921 191.663 75.3531C207.551 70.9141 229.501 64.7381 242.016 61.1676C254.53 57.5971 257.611 56.6321 258.238 53.8833C258.863 51.1345 257.033 46.599 257.322 43.6075C257.611 40.616 260.018 39.1685 262.233 38.7358C264.448 38.3 266.47 38.879 276.095 69.2736C285.724 99.6682 302.956 159.878 310.802 190.173C318.648 220.472 317.108 220.858 304.593 224.332C292.076 227.805 268.588 234.367 247.492 239.848C226.397 245.33 207.702 249.734 197.417 252.305C187.132 254.875 185.262 255.615 182.577 250.036C179.893 244.456 176.392 232.56 168.864 205.289C161.336 178.017 149.784 135.367 143.286 110.842C136.791 86.3161 135.35 79.912 136.797 76.7392C138.241 73.5664 142.571 73.6249 144.293 72.3996C146.014 71.1744 145.13 68.6624 144.48 66.4985C143.829 64.3346 143.409 62.5186 140.001 62.6999C136.593 62.8812 130.191 65.0627 126.028 66.6359C121.864 68.2092 119.938 69.1742 128.411 103.139C136.885 137.104 155.754 204.066 165.19 237.549C171.481 259.871 183.259 268.458 200.525 263.312C226.423 255.592 278.219 240.155 330.016 224.715C330.264 223.361 330.515 222.01 322.523 194.414C314.531 166.818 298.303 112.979 288.452 86.1553C278.605 59.3312 275.138 59.5242 252.318 65.1212C229.501 70.7182 187.333 81.7163 166.246 87.7957C145.162 93.8752 145.162 95.0332 146.029 97.6387C146.896 100.244 148.629 104.297 160.615 103.981C172.601 103.669 194.841 98.9868 204.42 96.3111C213.999 93.6325 210.918 92.96 199.605 94.7204C188.293 96.4808 168.75 100.677 159.363 104.803C149.977 108.929 150.747 112.979 152.191 116.453C153.636 119.927 155.754 122.822 167.306 121.375C178.86 119.927 199.848 114.137 208.56 111.269C217.273 108.397 213.71 108.447 202.351 110.859C190.989 113.272 171.831 118.047 163.057 123.205C154.281 128.364 155.891 133.902 160.443 136.326C164.998 138.751 172.493 138.055 183.657 135.394C194.817 132.73 209.646 128.101 215.394 125.773C221.142 123.445 217.812 123.425 207.195 125.826C196.577 128.226 178.67 133.051 169.657 137.429C160.647 141.806 160.533 145.734 162.027 149.351C163.518 152.968 166.617 156.279 174.425 155.618C182.23 154.957 194.747 150.325 197.435 148.74C200.122 147.155 192.982 148.611 186.192 150.205C179.406 151.796 172.972 153.521 170.162 158.22C167.355 162.92 168.172 170.59 174.335 173.002C180.497 175.415 192.002 172.569 203.53 169.505C215.061 166.44 226.613 163.162 227.893 162.282C229.171 161.402 220.179 162.925 209.205 165.145C198.228 167.364 185.273 170.28 179.178 174.634C173.086 178.988 173.856 184.775 176.622 188.009C179.391 191.241 184.156 191.916 194.625 189.65C205.094 187.381 221.267 182.173 228.089 179.468C234.908 176.763 232.375 176.567 221.769 179.073C211.163 181.579 192.486 186.79 184.319 191.881C176.152 196.975 178.492 201.946 189.484 202.022C200.475 202.096 220.115 197.273 229.67 194.259C239.226 191.244 238.698 190.036 229.574 191.75C220.453 193.463 202.736 198.095 193.496 201.955C184.252 205.815 183.482 208.903 183.771 212.474C184.06 216.044 185.408 220.097 195.807 219.229C206.206 218.36 225.653 212.57 225.749 211.702C225.845 210.833 206.591 214.886 196.974 219.273C187.357 223.659 187.38 228.382 187.961 231.563C188.538 234.748 189.67 236.394 197.073 235.771C204.475 235.148 218.145 232.253 222.825 230.619C227.505 228.984 223.19 228.61 216.642 229.382C210.095 230.154 201.315 232.072 196.571 235.052C191.827 238.032 191.118 242.076 209.123 238.795C227.126 235.514 263.844 224.91 281.718 218.451C299.595 211.991 298.632 209.675 296.514 202.92C294.396 196.165 291.122 184.974 287.944 180.053C284.767 175.131 281.686 176.482 276.101 177.833C270.516 179.184 262.431 180.535 258.965 182.658C255.499 184.781 256.654 187.676 257.81 192.887C258.965 198.098 260.12 205.622 263.683 208.614C267.246 211.605 273.215 210.061 278.701 208.517C284.189 206.973 289.196 205.429 291.408 203.982C293.622 202.534 293.045 201.183 291.119 197.323C289.193 193.463 285.92 187.097 286.594 179.377C287.268 171.657 291.889 162.589 292.948 159.984C294.008 157.378 291.504 161.238 289.097 166.739C286.69 172.239 284.379 179.377 282.838 185.167C281.298 190.957 280.527 195.396 279.372 197.806C278.217 200.218 276.676 200.604 274.943 199.253C273.21 197.902 271.284 194.814 268.973 191.63C266.662 188.445 263.966 185.164 262.04 183.91C260.115 182.655 258.959 183.427 257.226 180.629C255.493 177.83 253.182 171.461 253.182 167.99C253.182 164.519 255.493 163.937 260.403 163.215C265.314 162.493 272.824 161.624 276.673 160.08C280.525 158.536 280.717 156.317 279.827 150.576C278.937 144.836 276.962 135.572 273.688 131.326C270.414 127.08 265.842 127.852 260.185 129.203C254.53 130.554 247.79 132.484 245.286 136.344C242.783 140.204 244.516 145.994 246.153 151.205C247.79 156.416 249.33 161.048 251.029 162.937C252.727 164.826 254.582 163.972 256.701 161.27C258.819 158.568 261.197 154.018 263.35 151.84C265.504 149.661 267.429 149.854 270.87 151.869C274.31 153.884 279.264 157.723 277.82 157.627C276.375 157.53 268.532 153.498 261.197 149.535C253.862 145.573 247.031 141.678 246.871 140.841C246.71 140.008 253.217 142.233 257.69 144.76C262.163 147.287 264.605 150.114 267.546 147.36C270.487 144.605 273.933 136.274 273.933 134.633C273.933 132.993 270.49 138.046 268.48 142.213C266.47 146.38 265.892 149.661 261.944 148.599C257.996 147.538 250.678 142.134 246.156 136.344C241.63 130.554 239.897 124.381 241.727 120.81C243.556 117.24 248.948 116.275 253.57 115.02C258.192 113.766 262.04 112.222 263.773 108.169C265.507 104.116 265.122 97.5539 263.87 92.8284C262.618 88.0999 260.5 85.2049 260.765 79.5611C261.031 73.9173 263.677 65.5218 263.485 64.7498C263.292 63.9778 260.26 70.8293 258.647 79.0786C257.033 87.3279 256.841 96.9779 255.397 101.8C253.952 106.625 251.256 106.625 248.079 104.019C244.901 101.414 241.242 96.2029 238.257 92.9219C235.273 89.6409 232.962 88.2899 231.71 89.1584C230.458 90.0269 230.266 93.1149 231.228 98.0364C232.191 102.958 234.31 109.71 236.909 113.184C239.509 116.658 242.59 116.851 247.982 115.886C253.374 114.921 261.077 112.798 264.348 108.456C267.622 104.113 266.467 97.5539 265.215 92.1499C263.963 86.7459 262.615 82.5 258.597 81.9707C254.577 81.4385 247.886 84.6229 239.028 85.4914C230.169 86.3599 219.146 84.9124 207.279 85.5412C195.413 86.1669 182.706 88.8689 169.707 92.8254C156.708 96.7819 143.423 101.993 134.372 109.423C125.322 116.854 120.51 126.501 113.385 137.406C106.26 148.31 96.8264 160.466 86.2348 169.151C75.6432 177.836 63.8991 183.044 49.316 184.878C34.7329 186.711 17.3137 185.167 -0.105469 183.623" stroke="url(#paint0_linear_2275_440445)" stroke-width="1.34547" stroke-linecap="round"/>
<defs>
<linearGradient id="paint0_linear_2275_440445" x1="15.8758" y1="186.373" x2="410.527" y2="47.7892" gradientUnits="userSpaceOnUse">
<stop stop-color="#15CF79"/>
<stop offset="1" stop-color="#1EB9DC"/>
</linearGradient>
</defs>
</svg>
